<svg xmlns="http://www.w3.org/2000/svg" viewBox="0 0 800 500" fill="none" font-family="system-ui, -apple-system, Segoe UI, sans-serif">
  <!-- Canvas -->
  <rect width="800" height="500" fill="#FFFFFF"/>

  <!-- ===================== UTILITY SERVICE DROP ===================== -->
  <text x="120" y="28" text-anchor="middle" font-size="12" fill="#0C0A09" font-weight="700" letter-spacing="0.08em">FROM UTILITY</text>
  <text x="120" y="44" text-anchor="middle" font-size="10" fill="#57534E" font-style="italic">two hot legs + service neutral</text>

  <!-- L1 -->
  <line x1="80"  y1="56" x2="80"  y2="230" stroke="#1C1917" stroke-width="3"/>
  <text x="80"  y="74" text-anchor="middle" font-size="10" fill="#57534E" font-weight="600">L1</text>
  <!-- L2 -->
  <line x1="120" y1="56" x2="120" y2="230" stroke="#1C1917" stroke-width="3"/>
  <text x="120" y="74" text-anchor="middle" font-size="10" fill="#57534E" font-weight="600">L2</text>
  <!-- Service neutral -->
  <line x1="160" y1="56" x2="160" y2="298" stroke="#A8A29E" stroke-width="3"/>
  <text x="160" y="74" text-anchor="middle" font-size="10" fill="#57534E" font-weight="600">N</text>

  <!-- ===================== MAIN PANEL ===================== -->
  <text x="160" y="204" text-anchor="middle" font-size="13" fill="#0C0A09" font-weight="700" letter-spacing="0.08em">MAIN PANEL</text>

  <rect x="40" y="214" width="240" height="216" rx="8" fill="#FFFFFF" stroke="#1C1917" stroke-width="2.5"/>

  <!-- Main breaker -->
  <rect x="56" y="230" width="208" height="14" rx="2" fill="#0F766E"/>
  <text x="160" y="240" text-anchor="middle" font-size="9" fill="#FFFFFF" font-weight="700" letter-spacing="0.06em">MAIN BREAKER</text>

  <!-- Branch breakers -->
  <rect x="56" y="252" width="96" height="12" rx="2" fill="#E7E5E4"/>
  <rect x="168" y="252" width="96" height="12" rx="2" fill="#E7E5E4"/>
  <rect x="56" y="268" width="96" height="12" rx="2" fill="#E7E5E4"/>
  <rect x="168" y="268" width="96" height="12" rx="2" fill="#E7E5E4"/>

  <!-- Neutral bus -->
  <rect x="56" y="296" width="208" height="14" rx="3" fill="#A8A29E"/>
  <text x="160" y="306" text-anchor="middle" font-size="10" fill="#FFFFFF" font-weight="700" letter-spacing="0.06em">NEUTRAL BUS</text>

  <!-- EGC bus -->
  <rect x="56" y="378" width="208" height="14" rx="3" fill="#0F766E"/>
  <text x="160" y="388" text-anchor="middle" font-size="10" fill="#FFFFFF" font-weight="700" letter-spacing="0.06em">EGC BUS</text>

  <!-- ★ MAIN BONDING JUMPER ★ -->
  <rect x="278" y="300" width="10" height="86" rx="2" fill="#DC2626"/>
  <circle cx="283" cy="303" r="3" fill="#FFFFFF"/>
  <circle cx="283" cy="383" r="3" fill="#FFFFFF"/>
  <line x1="293" y1="343" x2="320" y2="343" stroke="#DC2626" stroke-width="1.5"/>
  <text x="324" y="338" font-size="12" fill="#DC2626" font-weight="700">Main bonding jumper</text>
  <text x="324" y="354" font-size="11" fill="#57534E" font-style="italic">the ONE neutral-to-ground bond</text>

  <!-- Grounding electrode conductor (GEC) leaves panel to ground rod -->
  <line x1="160" y1="392" x2="160" y2="446" stroke="#0F766E" stroke-width="3"/>

  <!-- Ground symbol -->
  <line x1="142" y1="446" x2="178" y2="446" stroke="#1C1917" stroke-width="3"/>
  <line x1="148" y1="454" x2="172" y2="454" stroke="#1C1917" stroke-width="2"/>
  <line x1="154" y1="462" x2="166" y2="462" stroke="#1C1917" stroke-width="2"/>
  <line x1="158" y1="470" x2="162" y2="470" stroke="#1C1917" stroke-width="2"/>
  <text x="160" y="486" text-anchor="middle" font-size="11" fill="#57534E" font-weight="600">Ground rod</text>

  <!-- ===================== FEEDER ===================== -->
  <text x="400" y="248" text-anchor="middle" font-size="9" fill="#57534E" font-weight="600">L1 / L2</text>
  <line x1="280" y1="258" x2="520" y2="258" stroke="#1C1917" stroke-width="2.5"/>
  <line x1="280" y1="270" x2="520" y2="270" stroke="#1C1917" stroke-width="2.5"/>

  <text x="400" y="297" text-anchor="middle" font-size="10" fill="#57534E" font-weight="700">Neutral feeder</text>
  <line x1="280" y1="303" x2="520" y2="303" stroke="#A8A29E" stroke-width="4"/>

  <line x1="280" y1="385" x2="520" y2="385" stroke="#0F766E" stroke-width="4"/>
  <text x="400" y="404" text-anchor="middle" font-size="10" fill="#0F766E" font-weight="700">EGC feeder</text>
  <text x="400" y="418" text-anchor="middle" font-size="10" fill="#57534E" font-style="italic">neutral &amp; EGC kept separate</text>

  <!-- ===================== SUBPANEL ===================== -->
  <text x="640" y="204" text-anchor="middle" font-size="13" fill="#0C0A09" font-weight="700" letter-spacing="0.08em">SUBPANEL</text>

  <rect x="520" y="214" width="240" height="216" rx="8" fill="#FFFFFF" stroke="#1C1917" stroke-width="2.5"/>

  <!-- Main lugs (no breaker, fed from main) -->
  <rect x="536" y="230" width="208" height="10" rx="2" fill="#0F766E"/>

  <!-- Branch breakers -->
  <rect x="536" y="252" width="96" height="12" rx="2" fill="#E7E5E4"/>
  <rect x="648" y="252" width="96" height="12" rx="2" fill="#E7E5E4"/>
  <rect x="536" y="268" width="96" height="12" rx="2" fill="#E7E5E4"/>
  <rect x="648" y="268" width="96" height="12" rx="2" fill="#E7E5E4"/>

  <!-- Neutral bus -->
  <rect x="536" y="296" width="208" height="14" rx="3" fill="#A8A29E"/>
  <text x="640" y="306" text-anchor="middle" font-size="10" fill="#FFFFFF" font-weight="700" letter-spacing="0.06em">NEUTRAL BUS</text>

  <!-- EGC bus -->
  <rect x="536" y="378" width="208" height="14" rx="3" fill="#0F766E"/>
  <text x="640" y="388" text-anchor="middle" font-size="10" fill="#FFFFFF" font-weight="700" letter-spacing="0.06em">EGC BUS</text>

  <!-- "No bond here" — empty space + crossed-out indicator -->
  <line x1="640" y1="312" x2="640" y2="376" stroke="#A8A29E" stroke-width="1.5" stroke-dasharray="3 4" opacity="0.4"/>
  <line x1="628" y1="332" x2="652" y2="356" stroke="#DC2626" stroke-width="2.5"/>
  <line x1="652" y1="332" x2="628" y2="356" stroke="#DC2626" stroke-width="2.5"/>
  <text x="668" y="340" font-size="12" fill="#0C0A09" font-weight="700">No bond here</text>
  <text x="668" y="356" font-size="11" fill="#57534E" font-style="italic">buses stay isolated</text>
</svg>
